<?xml version="1.0" encoding="utf-8"?>
<!-- Generator: Adobe Illustrator 21.1.0, SVG Export Plug-In . SVG Version: 6.00 Build 0)  -->
<svg version="1.1" id="Layer_1" xmlns="http://www.w3.org/2000/svg" xmlns:xlink="http://www.w3.org/1999/xlink" x="0px" y="0px"
	 viewBox="0 0 32 32" style="enable-background:new 0 0 32 32;" xml:space="preserve">
<style type="text/css">
	.st0{fill:#025859;}
	.st1{fill:#FFC10A;}
	.st2{fill:#2197F3;}
</style>
<rect y="0" class="st0" width="32" height="32"/>
<g id="User">
	<path class="st1" d="M22,17.1c2.2-1.7,3.6-4.5,3.6-7.5C25.6,4.3,21.3,0,16,0S6.4,4.3,6.4,9.6c0,3,1.4,5.8,3.6,7.5
		c-5.5,0.3-10,5-10,10.7v3.2C0,31.5,0.5,32,1.1,32H16h14.9c0.5,0,1.1-0.5,1.1-1.1v-3.2C32,22.1,27.5,17.4,22,17.1z"/>
	<path class="st2" d="M22,17.1c-1.6,1.3-3.7,2.1-6,2.1s-4.4-0.7-6-2.1c-5.5,0.3-10,5-10,10.7v3.2C0,31.5,0.5,32,1.1,32H16h14.9
		c0.5,0,1.1-0.5,1.1-1.1v-3.2C32,22.1,27.5,17.4,22,17.1z"/>
</g>
</svg>
